<svg xmlns="http://www.w3.org/2000/svg" viewBox="0 0 64 64" width="64" height="64">
  <defs>
    <linearGradient id="bg" x1="0%" y1="0%" x2="100%" y2="100%">
      <stop offset="0%" style="stop-color:#1a2a3a"/>
      <stop offset="100%" style="stop-color:#0d1b2a"/>
    </linearGradient>
    <linearGradient id="coral" x1="0%" y1="100%" x2="100%" y2="0%">
      <stop offset="0%" style="stop-color:#c9915a"/>
      <stop offset="100%" style="stop-color:#e8c496"/>
    </linearGradient>
  </defs>

  <!-- Background circle -->
  <circle cx="32" cy="32" r="30" fill="url(#bg)"/>
  <circle cx="32" cy="30" r="28" fill="none" stroke="#3987e5" stroke-width="1.5" opacity="0.6"/>

  <!-- Simplified wave -->
  <path d="M14,26 Q20,22 26,26 Q32,30 38,26 Q44,22 50,26"
        fill="none" stroke="#3987e5" stroke-width="2" stroke-linecap="round" opacity="0.85"/>

  <!-- Simplified coral -->
  <g transform="translate(32,44)" stroke="url(#coral)" fill="none" stroke-linecap="round">
    <path d="M0,4 L0,-8" stroke-width="3"/>
    <path d="M0,-4 L-10,-14" stroke-width="2.5"/>
    <path d="M0,-3 L11,-13" stroke-width="2.5"/>
    <path d="M-7,-10 L-14,-10" stroke-width="1.5"/>
    <path d="M8,-9 L15,-9" stroke-width="1.5"/>
    <path d="M0,-8 L-3,-16" stroke-width="1.8"/>
    <path d="M0,-8 L4,-15" stroke-width="1.8"/>
    <path d="M-10,-14 L-8,-19" stroke-width="1.5"/>
    <path d="M11,-13 L9,-18" stroke-width="1.5"/>
  </g>
</svg>
