<svg xmlns="http://www.w3.org/2000/svg" width="800" height="400" viewBox="0 0 800 400">
  <g fill="none" stroke="#003cff" stroke-width="1.5" stroke-opacity="0.08">
    <path d="M-100 50 Q 100 150, 300 50 T 700 50 T 1100 50" />
    <path d="M-100 100 Q 100 200, 300 100 T 700 100 T 1100 100" />
    <path d="M-100 150 Q 100 250, 300 150 T 700 150 T 1100 150" />
    <path d="M-100 200 Q 100 300, 300 200 T 700 200 T 1100 200" />
    <path d="M-100 250 Q 100 350, 300 250 T 700 250 T 1100 250" />
    <path d="M-100 300 Q 100 400, 300 300 T 700 300 T 1100 300" />
    <path d="M-100 350 Q 100 450, 300 350 T 700 350 T 1100 350" />
  </g>
</svg>
